<?xml version="1.0" encoding="UTF-8" standalone="no"?>
<!DOCTYPE svg PUBLIC "-//W3C//DTD SVG 1.1//EN" "http://www.w3.org/Graphics/SVG/1.1/DTD/svg11.dtd">
<svg width="100%" height="100%" viewBox="0 0 27 27" version="1.1" xmlns="http://www.w3.org/2000/svg" xmlns:xlink="http://www.w3.org/1999/xlink" xml:space="preserve" xmlns:serif="http://www.serif.com/" style="fill-rule:evenodd;clip-rule:evenodd;stroke-linejoin:round;stroke-miterlimit:2;">
    <g>
        <path d="M23,0L4,0C1.8,0 0,1.8 0,4L0,23C0,25.2 1.8,27 4,27L23,27C25.2,27 27,25.2 27,23L27,4C27,1.8 25.2,0 23,0Z" style="fill:rgb(0,108,27);fill-rule:nonzero;"/>
        <path d="M23,1L4,1C2.3,1 1,2.3 1,4L1,23C1,24.7 2.3,26 4,26L23,26C24.7,26 26,24.7 26,23L26,4C26,2.3 24.7,1 23,1Z" style="fill:white;fill-rule:nonzero;"/>
        <path d="M22.8,2.1L4.2,2.1C3,2.1 2.1,3 2.1,4.2L2.1,22.8C2.1,24 3,25 4.2,25L22.8,25C24,25 25,24 25,22.8L25,4.2C25,3 24,2.1 22.8,2.1Z" style="fill:url(#_Linear1);fill-rule:nonzero;"/>
        <path d="M15.9,10.9C15.9,11 15.9,11 15.9,10.9ZM13,9C12.1,9.2 11.4,9.8 11.1,10.7C11.4,9.9 12.1,9.2 13,9ZM11,11C11.1,11 11.1,11 11,11ZM15.9,10.7C15.6,9.9 14.9,9.2 14,9C14.9,9.2 15.6,9.9 15.9,10.7ZM13.5,10C12.7,10 12,10.7 12,11.5L12,13L15,13L15,11.5C15,10.7 14.3,10 13.5,10Z" style="fill:none;fill-rule:nonzero;"/>
        <path d="M17,13L17,11.5C17,9.6 15.4,8 13.5,8C11.6,8 10,9.6 10,11.5L10,13L9,13L9,19L18,19L18,13L17,13ZM17,18L10,18L10,14L11,14L11,10.9C11,10.8 11,10.7 11.1,10.7C11.4,9.9 12.1,9.2 13,9L14,9C14.9,9.2 15.6,9.8 15.9,10.7C15.9,10.8 15.9,10.9 16,10.9L16,14L17,14L17,18Z" style="fill:rgb(102,102,102);fill-rule:nonzero;"/>
        <path d="M16,14L16,10.9C16,10.8 16,10.7 15.9,10.7C15.6,9.9 14.9,9.2 14,9L13,9C12.1,9.2 11.4,9.8 11.1,10.7C11.1,10.8 11.1,10.9 11,10.9L11,14L10,14L10,18L17,18L17,14L16,14ZM15,14L12,14L12,11.5C12,10.7 12.7,10 13.5,10C14.3,10 15,10.7 15,11.5L15,14Z" style="fill:rgb(102,102,102);fill-rule:nonzero;"/>
        <rect x="12" y="13" width="3" height="1" style="fill:rgb(102,102,102);fill-rule:nonzero;"/>
    </g>
    <defs>
        <linearGradient id="_Linear1" x1="0" y1="0" x2="1" y2="0" gradientUnits="userSpaceOnUse" gradientTransform="matrix(1.40449e-15,22.937,-22.937,1.40449e-15,13.531,2.063)"><stop offset="0" style="stop-color:rgb(220,223,228);stop-opacity:1"/><stop offset="1" style="stop-color:white;stop-opacity:1"/></linearGradient>
    </defs>
</svg>
