<?xml version="1.0" encoding="UTF-8" standalone="no"?>
<!DOCTYPE svg PUBLIC "-//W3C//DTD SVG 1.1//EN" "http://www.w3.org/Graphics/SVG/1.1/DTD/svg11.dtd">
<svg width="100%" height="100%" viewBox="0 0 27 27" version="1.1" xmlns="http://www.w3.org/2000/svg" xmlns:xlink="http://www.w3.org/1999/xlink" xml:space="preserve" xmlns:serif="http://www.serif.com/" style="fill-rule:evenodd;clip-rule:evenodd;stroke-linejoin:round;stroke-miterlimit:2;">
    <path d="M23,0L4,0C1.8,0 0,1.8 0,4L0,23C0,25.2 1.8,27 4,27L23,27C25.2,27 27,25.2 27,23L27,4C27,1.8 25.2,0 23,0Z" style="fill:rgb(188,42,77);fill-rule:nonzero;"/>
    <path d="M23,1L4,1C2.3,1 1,2.3 1,4L1,23C1,24.7 2.3,26 4,26L23,26C24.7,26 26,24.7 26,23L26,4C26,2.3 24.7,1 23,1Z" style="fill:white;fill-rule:nonzero;"/>
    <path d="M22.8,2.1L4.2,2.1C3,2.1 2.1,3 2.1,4.2L2.1,22.8C2.1,24 3,25 4.2,25L22.8,25C24,25 25,24 25,22.8L25,4.2C25,3 24,2.1 22.8,2.1Z" style="fill:url(#_Linear1);fill-rule:nonzero;"/>
    <path d="M6,7.3L15.4,7.3L15.4,8.6L6,8.6L6,7.3ZM6,9.8L21,9.8L21,11L6,11L6,9.8ZM6,12.3L21,12.3L21,13.6L6,13.6L6,12.3ZM6,14.8L21,14.8L21,16L6,16L6,14.8ZM6,17.3L21,17.3L21,18.6L6,18.6L6,17.3ZM6,19.8L18.5,19.8L18.5,21L6,21L6,19.8Z" style="fill:rgb(188,42,77);fill-rule:nonzero;"/>
    <g>
        <path d="M23,0L4,0C1.8,0 0,1.8 0,4L0,23C0,25.2 1.8,27 4,27L23,27C25.2,27 27,25.2 27,23L27,4C27,1.8 25.2,0 23,0Z" style="fill:rgb(0,108,27);fill-rule:nonzero;"/>
        <path d="M23,1L4,1C2.3,1 1,2.3 1,4L1,23C1,24.7 2.3,26 4,26L23,26C24.7,26 26,24.7 26,23L26,4C26,2.3 24.7,1 23,1Z" style="fill:white;fill-rule:nonzero;"/>
        <path d="M22.8,2.1L4.2,2.1C3,2.1 2.1,3 2.1,4.2L2.1,22.8C2.1,24 3,25 4.2,25L22.8,25C24,25 25,24 25,22.8L25,4.2C25,3 24,2.1 22.8,2.1Z" style="fill:url(#_Linear2);fill-rule:nonzero;"/>
        <path d="M16.1,10.9L13.9,18.4C13.8,18.8 13.7,19.1 13.7,19.2C13.7,19.3 13.7,19.4 13.8,19.4C13.9,19.5 13.9,19.5 14,19.5C14.1,19.5 14.2,19.4 14.4,19.3C14.7,19 15.1,18.6 15.5,17.9L15.9,18.1C14.8,20 13.7,20.9 12.5,20.9C12,20.9 11.7,20.8 11.4,20.5C11.1,20.2 11,19.9 11,19.5C11,19.2 11.1,18.9 11.2,18.5L12.7,13.4C12.8,12.9 12.9,12.5 12.9,12.3C12.9,12.1 12.8,12 12.7,11.9C12.6,11.8 12.4,11.7 12.1,11.7L11.7,11.7L11.8,11.3L15.4,10.7L16.1,10.7L16.1,10.9ZM15.4,6C15.8,6 16.2,6.2 16.5,6.5C16.8,6.8 17,7.1 17,7.6C17,8.1 16.8,8.4 16.5,8.7C16.2,9 15.8,9.2 15.4,9.2C15,9.2 14.6,9 14.3,8.7C14,8.4 13.9,8 13.9,7.6C13.9,7.2 14.1,6.8 14.4,6.5C14.6,6.2 15,6 15.4,6Z" style="fill:rgb(102,102,102);fill-rule:nonzero;"/>
    </g>
    <defs>
        <linearGradient id="_Linear1" x1="0" y1="0" x2="1" y2="0" gradientUnits="userSpaceOnUse" gradientTransform="matrix(1.40449e-15,-22.937,22.937,1.40449e-15,13.532,25)"><stop offset="0" style="stop-color:white;stop-opacity:1"/><stop offset="1" style="stop-color:rgb(220,223,227);stop-opacity:1"/></linearGradient>
        <linearGradient id="_Linear2" x1="0" y1="0" x2="1" y2="0" gradientUnits="userSpaceOnUse" gradientTransform="matrix(1.40449e-15,22.937,-22.937,1.40449e-15,13.531,2.063)"><stop offset="0" style="stop-color:rgb(220,223,228);stop-opacity:1"/><stop offset="1" style="stop-color:white;stop-opacity:1"/></linearGradient>
    </defs>
</svg>
