<?xml version="1.0" encoding="UTF-8" standalone="no"?>
<!DOCTYPE svg PUBLIC "-//W3C//DTD SVG 1.1//EN" "http://www.w3.org/Graphics/SVG/1.1/DTD/svg11.dtd">
<svg width="100%" height="100%" viewBox="0 0 27 27" version="1.1" xmlns="http://www.w3.org/2000/svg" xmlns:xlink="http://www.w3.org/1999/xlink" xml:space="preserve" xmlns:serif="http://www.serif.com/" style="fill-rule:evenodd;clip-rule:evenodd;stroke-linejoin:round;stroke-miterlimit:2;">
    <path d="M23,0L4,0C1.8,0 0,1.8 0,4L0,23C0,25.2 1.8,27 4,27L23,27C25.2,27 27,25.2 27,23L27,4C27,1.8 25.2,0 23,0Z" style="fill:rgb(0,108,27);fill-rule:nonzero;"/>
    <path d="M23,1L4,1C2.3,1 1,2.3 1,4L1,23C1,24.7 2.3,26 4,26L23,26C24.7,26 26,24.7 26,23L26,4C26,2.3 24.7,1 23,1Z" style="fill:white;fill-rule:nonzero;"/>
    <path d="M22.8,2.1L4.2,2.1C3,2.1 2.1,3 2.1,4.2L2.1,22.8C2.1,24 3,25 4.2,25L22.8,25C24,25 25,24 25,22.8L25,4.2C25,3 24,2.1 22.8,2.1Z" style="fill:url(#_Linear1);fill-rule:nonzero;"/>
    <path d="M23,1L4,1C2.3,1 1,2.3 1,4L1,23C1,24.7 2.3,26 4,26L23,26C24.7,26 26,24.7 26,23L26,4C26,2.3 24.7,1 23,1Z" style="fill:white;fill-rule:nonzero;"/>
    <path d="M22.8,2.1L4.2,2.1C3,2.1 2.1,3 2.1,4.2L2.1,22.8C2.1,24 3,25 4.2,25L22.8,25C24,25 25,24 25,22.8L25,4.2C25,3 24,2.1 22.8,2.1Z" style="fill:url(#_Linear2);fill-rule:nonzero;"/>
    <g>
        <path d="M9.1,9L9.1,10.3L16.7,10.3L16.7,17.9L18,17.9L18,9" style="fill:rgb(0,108,27);fill-rule:nonzero;"/>
        <path d="M16.7,10.3L9.1,10.3L9.1,11.6L13.7,11.6L9,16.2L10.8,18L15.5,13.3L15.5,17.9L16.8,17.9L16.8,12" style="fill:rgb(0,108,27);fill-rule:nonzero;"/>
    </g>
    <defs>
        <linearGradient id="_Linear1" x1="0" y1="0" x2="1" y2="0" gradientUnits="userSpaceOnUse" gradientTransform="matrix(1.40449e-15,22.937,-22.937,1.40449e-15,13.531,2.063)"><stop offset="0" style="stop-color:rgb(220,223,228);stop-opacity:1"/><stop offset="1" style="stop-color:white;stop-opacity:1"/></linearGradient>
        <linearGradient id="_Linear2" x1="0" y1="0" x2="1" y2="0" gradientUnits="userSpaceOnUse" gradientTransform="matrix(1.40449e-15,-22.937,22.937,1.40449e-15,13.532,25)"><stop offset="0" style="stop-color:rgb(220,223,228);stop-opacity:1"/><stop offset="1" style="stop-color:white;stop-opacity:1"/></linearGradient>
    </defs>
</svg>
