<?xml version="1.0" encoding="UTF-8" standalone="no"?>
<!DOCTYPE svg PUBLIC "-//W3C//DTD SVG 1.1//EN" "http://www.w3.org/Graphics/SVG/1.1/DTD/svg11.dtd">
<svg width="100%" height="100%" viewBox="0 0 27 27" version="1.1" xmlns="http://www.w3.org/2000/svg" xmlns:xlink="http://www.w3.org/1999/xlink" xml:space="preserve" xmlns:serif="http://www.serif.com/" style="fill-rule:evenodd;clip-rule:evenodd;stroke-linejoin:round;stroke-miterlimit:2;">
    <path d="M23,0L4,0C1.8,0 0,1.8 0,4L0,23C0,25.2 1.8,27 4,27L23,27C25.2,27 27,25.2 27,23L27,4C27,1.8 25.2,0 23,0Z" style="fill:rgb(144,29,3);fill-rule:nonzero;"/>
    <path d="M23,1L4,1C2.3,1 1,2.3 1,4L1,23C1,24.7 2.3,26 4,26L23,26C24.7,26 26,24.7 26,23L26,4C26,2.3 24.7,1 23,1Z" style="fill:white;fill-rule:nonzero;"/>
    <path d="M22.8,2.1L4.2,2.1C3,2.1 2.1,3 2.1,4.2L2.1,22.8C2.1,24 3,25 4.2,25L22.8,25C24,25 25,24 25,22.8L25,4.2C25,3 24,2.1 22.8,2.1Z" style="fill:url(#_Linear1);fill-rule:nonzero;"/>
    <path d="M12.3,17.5C12.8,17.5 13.2,17.7 13.5,18C13.8,18.3 14,18.7 14,19.2C14,19.7 13.8,20.1 13.5,20.4C13.2,20.7 12.8,20.9 12.3,20.9C11.8,20.9 11.4,20.7 11.1,20.4C10.8,20.1 10.6,19.7 10.6,19.2C10.6,18.7 10.8,18.3 11.1,18C11.4,17.7 11.8,17.5 12.3,17.5ZM13.3,16.6L12.9,16.6C13.2,14.7 13.5,12.8 13.7,10.9C13.9,9 14.1,7.7 14.5,7C14.9,6.3 15.3,6 15.9,6C16.2,6 16.5,6.1 16.7,6.4C16.9,6.6 17,7 17,7.4C17,7.7 16.9,8.1 16.8,8.4C16.7,8.7 16.3,9.6 15.7,10.9C14.7,13 13.9,14.9 13.3,16.6Z" style="fill:rgb(144,29,3);fill-rule:nonzero;"/>
    <defs>
        <linearGradient id="_Linear1" x1="0" y1="0" x2="1" y2="0" gradientUnits="userSpaceOnUse" gradientTransform="matrix(1.40449e-15,-22.937,22.937,1.40449e-15,13.532,25)"><stop offset="0" style="stop-color:white;stop-opacity:1"/><stop offset="1" style="stop-color:rgb(220,223,227);stop-opacity:1"/></linearGradient>
    </defs>
</svg>
