<?xml version="1.0" encoding="UTF-8" standalone="no"?>
<!DOCTYPE svg PUBLIC "-//W3C//DTD SVG 1.1//EN" "http://www.w3.org/Graphics/SVG/1.1/DTD/svg11.dtd">
<svg width="100%" height="100%" viewBox="0 0 27 27" version="1.1" xmlns="http://www.w3.org/2000/svg" xmlns:xlink="http://www.w3.org/1999/xlink" xml:space="preserve" xmlns:serif="http://www.serif.com/" style="fill-rule:evenodd;clip-rule:evenodd;stroke-linejoin:round;stroke-miterlimit:2;">
    <path d="M23,0L4,0C1.8,0 0,1.8 0,4L0,23C0,25.2 1.8,27 4,27L23,27C25.2,27 27,25.2 27,23L27,4C27,1.8 25.2,0 23,0Z" style="fill:rgb(144,29,3);fill-rule:nonzero;"/>
    <path d="M23,1L4,1C2.3,1 1,2.3 1,4L1,23C1,24.7 2.3,26 4,26L23,26C24.7,26 26,24.7 26,23L26,4C26,2.3 24.7,1 23,1Z" style="fill:white;fill-rule:nonzero;"/>
    <path d="M22.8,2.1L4.2,2.1C3,2.1 2.1,3 2.1,4.2L2.1,22.8C2.1,24 3,25 4.2,25L22.8,25C24,25 25,24 25,22.8L25,4.2C25,3 24,2.1 22.8,2.1Z" style="fill:url(#_Linear1);fill-rule:nonzero;"/>
    <path d="M23,1L4,1C2.3,1 1,2.3 1,4L1,23C1,24.7 2.3,26 4,26L23,26C24.7,26 26,24.7 26,23L26,4C26,2.3 24.7,1 23,1Z" style="fill:white;fill-rule:nonzero;"/>
    <path d="M22.8,2.1L4.2,2.1C3,2.1 2.1,3 2.1,4.2L2.1,22.8C2.1,24 3,25 4.2,25L22.8,25C24,25 25,24 25,22.8L25,4.2C25,3 24,2.1 22.8,2.1Z" style="fill:url(#_Linear2);fill-rule:nonzero;"/>
    <path d="M6,7.3L15.4,7.3L15.4,8.6L6,8.6L6,7.3ZM6,9.8L21,9.8L21,11L6,11L6,9.8ZM6,12.3L21,12.3L21,13.6L6,13.6L6,12.3ZM6,14.8L21,14.8L21,16L6,16L6,14.8ZM6,17.3L21,17.3L21,18.6L6,18.6L6,17.3ZM6,19.8L18.5,19.8L18.5,21L6,21L6,19.8Z" style="fill:rgb(144,29,3);fill-rule:nonzero;"/>
    <g>
        <rect x="20.5" y="3" width="1" height="3" style="fill:rgb(242,13,13);fill-rule:nonzero;"/>
        <path d="M23.757,4.612L24.067,5.563L21.216,6.495L20.906,5.544L23.757,4.612Z" style="fill:rgb(242,13,13);fill-rule:nonzero;"/>
        <path d="M23.232,8.095L22.423,8.683L20.658,6.258L21.467,5.669L23.232,8.095Z" style="fill:rgb(242,13,13);fill-rule:nonzero;"/>
        <path d="M19.685,8.717L18.875,8.13L20.637,5.702L21.447,6.289L19.685,8.717Z" style="fill:rgb(242,13,13);fill-rule:nonzero;"/>
        <path d="M18.026,5.494L18.334,4.543L21.188,5.469L20.879,6.42L18.026,5.494Z" style="fill:rgb(242,13,13);fill-rule:nonzero;"/>
    </g>
    <defs>
        <linearGradient id="_Linear1" x1="0" y1="0" x2="1" y2="0" gradientUnits="userSpaceOnUse" gradientTransform="matrix(1.40449e-15,-22.937,22.937,1.40449e-15,13.532,25)"><stop offset="0" style="stop-color:white;stop-opacity:1"/><stop offset="1" style="stop-color:rgb(220,223,227);stop-opacity:1"/></linearGradient>
        <linearGradient id="_Linear2" x1="0" y1="0" x2="1" y2="0" gradientUnits="userSpaceOnUse" gradientTransform="matrix(1.40449e-15,-22.937,22.937,1.40449e-15,13.532,25)"><stop offset="0" style="stop-color:rgb(220,223,228);stop-opacity:1"/><stop offset="1" style="stop-color:white;stop-opacity:1"/></linearGradient>
    </defs>
</svg>
