<?xml version="1.0" encoding="UTF-8" standalone="no"?>
<!DOCTYPE svg PUBLIC "-//W3C//DTD SVG 1.1//EN" "http://www.w3.org/Graphics/SVG/1.1/DTD/svg11.dtd">
<svg width="100%" height="100%" viewBox="0 0 27 27" version="1.1" xmlns="http://www.w3.org/2000/svg" xmlns:xlink="http://www.w3.org/1999/xlink" xml:space="preserve" xmlns:serif="http://www.serif.com/" style="fill-rule:evenodd;clip-rule:evenodd;stroke-linejoin:round;stroke-miterlimit:2;">
    <path d="M23,0L4,0C1.8,0 0,1.8 0,4L0,23C0,25.2 1.8,27 4,27L23,27C25.2,27 27,25.2 27,23L27,4C27,1.8 25.2,0 23,0Z" style="fill:rgb(0,108,27);fill-rule:nonzero;"/>
    <path d="M23,1L4,1C2.3,1 1,2.3 1,4L1,23C1,24.7 2.3,26 4,26L23,26C24.7,26 26,24.7 26,23L26,4C26,2.3 24.7,1 23,1Z" style="fill:white;fill-rule:nonzero;"/>
    <path d="M22.8,2.1L4.2,2.1C3,2.1 2.1,3 2.1,4.2L2.1,22.8C2.1,24 3,25 4.2,25L22.8,25C24,25 25,24 25,22.8L25,4.2C25,3 24,2.1 22.8,2.1Z" style="fill:url(#_Linear1);fill-rule:nonzero;"/>
    <path d="M16.4,21C19.5,19.2 20.4,17.5 19.8,15.2C19.4,13.5 18.1,12.1 18,10.4C17.5,11.3 17.5,11.9 17.4,12.9C15.9,10.9 14.2,8.4 14.6,6C14.6,6 11.7,7 10.4,11.5C9.7,10.8 9.8,9.5 10.1,8.8C9.1,9.5 3,16.4 11.1,20.9C9.6,18 10.7,13.9 13.3,12.1C13.1,12.9 13.4,15 14.5,16.3C14.2,15 14.9,14.1 14.9,14.1C14.9,14.1 15.1,15.3 16,16.6C16.8,17.8 17.4,19 16.4,21Z" style="fill:rgb(102,102,102);fill-rule:nonzero;"/>
    <defs>
        <linearGradient id="_Linear1" x1="0" y1="0" x2="1" y2="0" gradientUnits="userSpaceOnUse" gradientTransform="matrix(1.40449e-15,22.937,-22.937,1.40449e-15,13.55,2.064)"><stop offset="0" style="stop-color:rgb(220,223,228);stop-opacity:1"/><stop offset="1" style="stop-color:white;stop-opacity:1"/></linearGradient>
    </defs>
</svg>
